<mxfile host="app.diagrams.net" modified="2023-05-25T10:20:57.865Z" agent="Mozilla/5.0 (Windows NT 10.0; Win64; x64) AppleWebKit/537.36 (KHTML, like Gecko) Chrome/113.0.0.0 Safari/537.36" etag="ITaYeKw6xssIY85V25YD" version="21.3.3" type="github">
  <diagram id="MK4zsHryxu_lcCKdK7D6" name="第 1 页">
    <mxGraphModel dx="1221" dy="743" grid="1" gridSize="10" guides="1" tooltips="1" connect="1" arrows="1" fold="1" page="1" pageScale="1" pageWidth="3300" pageHeight="4681" background="#FFFFFF" math="0" shadow="0">
      <root>
        <mxCell id="0" />
        <mxCell id="1" parent="0" />
        <mxCell id="qRmNPUV2aHM7vwJubzwD-107" value="IRT 6.0 / 5.x - ClinWMS - 下单流程" style="swimlane;rounded=0;" parent="1" vertex="1">
          <mxGeometry x="770" y="50" width="840" height="890" as="geometry" />
        </mxCell>
        <mxCell id="qRmNPUV2aHM7vwJubzwD-157" style="edgeStyle=orthogonalEdgeStyle;rounded=0;orthogonalLoop=1;jettySize=auto;html=1;exitX=1;exitY=0.5;exitDx=0;exitDy=0;entryX=0;entryY=0.5;entryDx=0;entryDy=0;" parent="qRmNPUV2aHM7vwJubzwD-107" edge="1">
          <mxGeometry relative="1" as="geometry">
            <mxPoint x="160" y="905" as="sourcePoint" />
          </mxGeometry>
        </mxCell>
        <mxCell id="VDnxwMm_5BDVNk77qKNi-1" value="IRT 6.0 / 5.x" style="swimlane;horizontal=0;" parent="qRmNPUV2aHM7vwJubzwD-107" vertex="1">
          <mxGeometry y="23" width="840" height="247" as="geometry" />
        </mxCell>
        <mxCell id="VDnxwMm_5BDVNk77qKNi-2" value="ClinWMS" style="swimlane;horizontal=0;" parent="qRmNPUV2aHM7vwJubzwD-107" vertex="1">
          <mxGeometry y="270" width="840" height="620" as="geometry" />
        </mxCell>
        <mxCell id="VDnxwMm_5BDVNk77qKNi-26" style="edgeStyle=orthogonalEdgeStyle;rounded=0;orthogonalLoop=1;jettySize=auto;html=1;exitX=0.5;exitY=1;exitDx=0;exitDy=0;entryX=0.5;entryY=0;entryDx=0;entryDy=0;" parent="VDnxwMm_5BDVNk77qKNi-2" source="VDnxwMm_5BDVNk77qKNi-20" target="VDnxwMm_5BDVNk77qKNi-37" edge="1">
          <mxGeometry relative="1" as="geometry" />
        </mxCell>
        <mxCell id="VDnxwMm_5BDVNk77qKNi-20" value="DEPO待审核" style="rounded=0;whiteSpace=wrap;html=1;" parent="VDnxwMm_5BDVNk77qKNi-2" vertex="1">
          <mxGeometry x="363" y="30" width="120" height="60" as="geometry" />
        </mxCell>
        <mxCell id="VDnxwMm_5BDVNk77qKNi-42" style="edgeStyle=orthogonalEdgeStyle;rounded=0;orthogonalLoop=1;jettySize=auto;html=1;exitX=0.5;exitY=1;exitDx=0;exitDy=0;fontColor=none;" parent="VDnxwMm_5BDVNk77qKNi-2" source="VDnxwMm_5BDVNk77qKNi-25" target="VDnxwMm_5BDVNk77qKNi-28" edge="1">
          <mxGeometry relative="1" as="geometry" />
        </mxCell>
        <mxCell id="VDnxwMm_5BDVNk77qKNi-25" value="DEPO确认下单" style="rounded=0;whiteSpace=wrap;html=1;" parent="VDnxwMm_5BDVNk77qKNi-2" vertex="1">
          <mxGeometry x="363" y="329" width="120" height="60" as="geometry" />
        </mxCell>
        <mxCell id="VDnxwMm_5BDVNk77qKNi-33" value="&lt;div&gt;正向流程：——有编号药 / 无编号药：&lt;/div&gt;&lt;div&gt;1、下单成功（编号、数量预锁定）&lt;/div&gt;&lt;div&gt;2、实际库存：不变；可选库存：减少；预订库存：增加&lt;/div&gt;" style="rounded=0;whiteSpace=wrap;html=1;align=left;" parent="VDnxwMm_5BDVNk77qKNi-2" vertex="1">
          <mxGeometry x="60" y="30" width="270" height="70" as="geometry" />
        </mxCell>
        <mxCell id="VDnxwMm_5BDVNk77qKNi-34" value="&lt;div&gt;逆向流程（取消、审核拒绝）： 有编号药 / 无编号药&lt;/div&gt;&lt;div&gt;1、锁定编号、数量回滚到可用库存中&lt;/div&gt;&lt;div&gt;2、实际库存：不变；可选库存：增加；锁定库存：减少&lt;/div&gt;" style="rounded=0;whiteSpace=wrap;html=1;align=left;" parent="VDnxwMm_5BDVNk77qKNi-2" vertex="1">
          <mxGeometry x="520" y="30" width="300" height="70" as="geometry" />
        </mxCell>
        <mxCell id="VDnxwMm_5BDVNk77qKNi-35" value="&lt;div&gt;正向流程 —- 有编号药：&lt;/div&gt;&lt;div&gt;1、&lt;span style=&quot;background-color: initial;&quot;&gt;实际库存：不变；可选库存：不变；预订库存：减少；运输库存：增加；&lt;/span&gt;&lt;/div&gt;&lt;div&gt;&lt;br&gt;&lt;/div&gt;&lt;div&gt;正向流程 —- 无编号药：&lt;/div&gt;1、实际库存：不变；可选库存：不变；预订库存：减少；运输库存：增加；" style="rounded=0;whiteSpace=wrap;html=1;align=left;" parent="VDnxwMm_5BDVNk77qKNi-2" vertex="1">
          <mxGeometry x="60" y="303" width="270" height="129" as="geometry" />
        </mxCell>
        <mxCell id="VDnxwMm_5BDVNk77qKNi-36" value="&lt;div&gt;逆向流程（取消）— 有编号药：&lt;/div&gt;&lt;div&gt;1、实际库存：不变；可选库存：不变；锁定库存：不变&lt;/div&gt;&lt;div&gt;&lt;br&gt;&lt;/div&gt;&lt;div&gt;逆向流程（取消）— 无编号药：&lt;/div&gt;&lt;div&gt;1、锁定编号、数量回滚到可用库存中&lt;/div&gt;&lt;div&gt;2、实际库存：不变；可选库存：增加；锁定库存：减少&lt;/div&gt;" style="rounded=0;whiteSpace=wrap;html=1;align=left;" parent="VDnxwMm_5BDVNk77qKNi-2" vertex="1">
          <mxGeometry x="520" y="303" width="299" height="129" as="geometry" />
        </mxCell>
        <mxCell id="VDnxwMm_5BDVNk77qKNi-40" style="edgeStyle=orthogonalEdgeStyle;rounded=0;orthogonalLoop=1;jettySize=auto;html=1;exitX=0.5;exitY=1;exitDx=0;exitDy=0;" parent="VDnxwMm_5BDVNk77qKNi-2" source="VDnxwMm_5BDVNk77qKNi-37" target="VDnxwMm_5BDVNk77qKNi-25" edge="1">
          <mxGeometry relative="1" as="geometry" />
        </mxCell>
        <mxCell id="VDnxwMm_5BDVNk77qKNi-37" value="DEPO审核通过" style="rounded=0;whiteSpace=wrap;html=1;" parent="VDnxwMm_5BDVNk77qKNi-2" vertex="1">
          <mxGeometry x="363" y="166" width="120" height="60" as="geometry" />
        </mxCell>
        <mxCell id="VDnxwMm_5BDVNk77qKNi-38" value="&lt;div&gt;&lt;span style=&quot;background-color: initial;&quot;&gt;1、实际库存：不变；可选库存：不变；锁定库存：不变；&lt;/span&gt;&lt;br&gt;&lt;/div&gt;&lt;div&gt;3、批号不变更：有编号药修改编码/无编号修改数量：释放原锁定编号/数量，重新占用选择的编号/数量；&amp;nbsp;&lt;/div&gt;&lt;div&gt;4、批号变更：有编号药修改编码/无编号修改数量：清空原有批号的编号/数量，重新占用选择批号对应的编号/数量；&amp;nbsp;&lt;/div&gt;" style="rounded=0;whiteSpace=wrap;html=1;align=left;" parent="VDnxwMm_5BDVNk77qKNi-2" vertex="1">
          <mxGeometry x="60" y="121" width="270" height="150" as="geometry" />
        </mxCell>
        <mxCell id="VDnxwMm_5BDVNk77qKNi-39" value="&lt;div&gt;逆向流程（取消、审核拒绝）： 有编号药 / 无编号药&lt;/div&gt;&lt;div&gt;1、锁定编号、数量回滚到可用库存中&lt;/div&gt;&lt;div&gt;2、实际库存：不变；可选库存：增加；锁定库存：减少&lt;/div&gt;" style="rounded=0;whiteSpace=wrap;html=1;align=left;" parent="VDnxwMm_5BDVNk77qKNi-2" vertex="1">
          <mxGeometry x="520" y="147" width="300" height="79" as="geometry" />
        </mxCell>
        <mxCell id="VDnxwMm_5BDVNk77qKNi-28" value="中心接收(irt 6.0/5.x确认接收)" style="rounded=0;whiteSpace=wrap;html=1;" parent="VDnxwMm_5BDVNk77qKNi-2" vertex="1">
          <mxGeometry x="363" y="472" width="120" height="60" as="geometry" />
        </mxCell>
        <mxCell id="VDnxwMm_5BDVNk77qKNi-30" value="结束" style="rounded=1;whiteSpace=wrap;html=1;" parent="VDnxwMm_5BDVNk77qKNi-2" vertex="1">
          <mxGeometry x="383" y="562" width="80" height="33" as="geometry" />
        </mxCell>
        <mxCell id="VDnxwMm_5BDVNk77qKNi-41" value="&lt;div&gt;正向流程 —- 有编号药 / 无编号药：&lt;/div&gt;&lt;div&gt;1、增加中心虚拟库存；&lt;/div&gt;&lt;div&gt;2、实际库存：减少；可选库存：不变；运输库存：减少；&lt;/div&gt;" style="rounded=0;whiteSpace=wrap;html=1;align=left;" parent="VDnxwMm_5BDVNk77qKNi-2" vertex="1">
          <mxGeometry x="60" y="464.75" width="270" height="74.5" as="geometry" />
        </mxCell>
        <mxCell id="VDnxwMm_5BDVNk77qKNi-31" style="edgeStyle=orthogonalEdgeStyle;rounded=0;orthogonalLoop=1;jettySize=auto;html=1;exitX=0.5;exitY=1;exitDx=0;exitDy=0;entryX=0.5;entryY=0;entryDx=0;entryDy=0;" parent="VDnxwMm_5BDVNk77qKNi-2" source="VDnxwMm_5BDVNk77qKNi-28" target="VDnxwMm_5BDVNk77qKNi-30" edge="1">
          <mxGeometry relative="1" as="geometry" />
        </mxCell>
        <mxCell id="VDnxwMm_5BDVNk77qKNi-24" style="edgeStyle=orthogonalEdgeStyle;rounded=0;orthogonalLoop=1;jettySize=auto;html=1;exitX=0.5;exitY=1;exitDx=0;exitDy=0;" parent="1" source="VDnxwMm_5BDVNk77qKNi-4" target="VDnxwMm_5BDVNk77qKNi-7" edge="1">
          <mxGeometry relative="1" as="geometry" />
        </mxCell>
        <mxCell id="VDnxwMm_5BDVNk77qKNi-4" value="开始" style="rounded=1;whiteSpace=wrap;html=1;" parent="1" vertex="1">
          <mxGeometry x="1153" y="90" width="80" height="33" as="geometry" />
        </mxCell>
        <mxCell id="VDnxwMm_5BDVNk77qKNi-6" style="edgeStyle=orthogonalEdgeStyle;rounded=0;orthogonalLoop=1;jettySize=auto;html=1;exitX=0.5;exitY=1;exitDx=0;exitDy=0;" parent="1" source="VDnxwMm_5BDVNk77qKNi-7" target="VDnxwMm_5BDVNk77qKNi-21" edge="1">
          <mxGeometry relative="1" as="geometry" />
        </mxCell>
        <mxCell id="VDnxwMm_5BDVNk77qKNi-7" value="提交运单" style="rounded=0;whiteSpace=wrap;html=1;" parent="1" vertex="1">
          <mxGeometry x="1133" y="150" width="120" height="60" as="geometry" />
        </mxCell>
        <mxCell id="VDnxwMm_5BDVNk77qKNi-8" style="rounded=0;orthogonalLoop=1;jettySize=auto;html=1;exitX=0.5;exitY=1;exitDx=0;exitDy=0;startArrow=none;entryX=0.5;entryY=0;entryDx=0;entryDy=0;" parent="1" source="VDnxwMm_5BDVNk77qKNi-21" target="VDnxwMm_5BDVNk77qKNi-20" edge="1">
          <mxGeometry relative="1" as="geometry">
            <mxPoint x="1193" y="430" as="targetPoint" />
          </mxGeometry>
        </mxCell>
        <mxCell id="VDnxwMm_5BDVNk77qKNi-21" value="PM审核生效" style="rounded=0;whiteSpace=wrap;html=1;" parent="1" vertex="1">
          <mxGeometry x="1133" y="238" width="120" height="60" as="geometry" />
        </mxCell>
        <mxCell id="VDnxwMm_5BDVNk77qKNi-43" value="IRT 6.0 / 5.x - ClinWMS - 中心退回/拒收流程" style="swimlane;rounded=0;" parent="1" vertex="1">
          <mxGeometry x="1710" y="50" width="840" height="800" as="geometry" />
        </mxCell>
        <mxCell id="VDnxwMm_5BDVNk77qKNi-44" style="edgeStyle=orthogonalEdgeStyle;rounded=0;orthogonalLoop=1;jettySize=auto;html=1;exitX=1;exitY=0.5;exitDx=0;exitDy=0;entryX=0;entryY=0.5;entryDx=0;entryDy=0;" parent="VDnxwMm_5BDVNk77qKNi-43" edge="1">
          <mxGeometry relative="1" as="geometry">
            <mxPoint x="160" y="905" as="sourcePoint" />
          </mxGeometry>
        </mxCell>
        <mxCell id="VDnxwMm_5BDVNk77qKNi-45" value="IRT 6.0 / 5.x" style="swimlane;horizontal=0;" parent="VDnxwMm_5BDVNk77qKNi-43" vertex="1">
          <mxGeometry y="23" width="840" height="247" as="geometry" />
        </mxCell>
        <mxCell id="VDnxwMm_5BDVNk77qKNi-64" value="开始" style="rounded=1;whiteSpace=wrap;html=1;" parent="VDnxwMm_5BDVNk77qKNi-45" vertex="1">
          <mxGeometry x="383" y="19.5" width="80" height="33" as="geometry" />
        </mxCell>
        <mxCell id="VDnxwMm_5BDVNk77qKNi-66" value="提交运单" style="rounded=0;whiteSpace=wrap;html=1;" parent="VDnxwMm_5BDVNk77qKNi-45" vertex="1">
          <mxGeometry x="363" y="79.5" width="120" height="60" as="geometry" />
        </mxCell>
        <mxCell id="VDnxwMm_5BDVNk77qKNi-63" style="edgeStyle=orthogonalEdgeStyle;rounded=0;orthogonalLoop=1;jettySize=auto;html=1;exitX=0.5;exitY=1;exitDx=0;exitDy=0;" parent="VDnxwMm_5BDVNk77qKNi-45" source="VDnxwMm_5BDVNk77qKNi-64" target="VDnxwMm_5BDVNk77qKNi-66" edge="1">
          <mxGeometry relative="1" as="geometry" />
        </mxCell>
        <mxCell id="VDnxwMm_5BDVNk77qKNi-68" value="PM审核生效" style="rounded=0;whiteSpace=wrap;html=1;" parent="VDnxwMm_5BDVNk77qKNi-45" vertex="1">
          <mxGeometry x="363" y="167.5" width="120" height="60" as="geometry" />
        </mxCell>
        <mxCell id="VDnxwMm_5BDVNk77qKNi-65" style="edgeStyle=orthogonalEdgeStyle;rounded=0;orthogonalLoop=1;jettySize=auto;html=1;exitX=0.5;exitY=1;exitDx=0;exitDy=0;" parent="VDnxwMm_5BDVNk77qKNi-45" source="VDnxwMm_5BDVNk77qKNi-66" target="VDnxwMm_5BDVNk77qKNi-68" edge="1">
          <mxGeometry relative="1" as="geometry" />
        </mxCell>
        <mxCell id="VDnxwMm_5BDVNk77qKNi-73" value="&lt;div&gt;正向流程：——有编号药 / 无编号药：&lt;/div&gt;&lt;div&gt;1、下单成功，中心库存占用：预订中&lt;/div&gt;&lt;div&gt;2、实际库存：不变；&lt;/div&gt;" style="rounded=0;whiteSpace=wrap;html=1;align=left;" parent="VDnxwMm_5BDVNk77qKNi-45" vertex="1">
          <mxGeometry x="70" y="74.5" width="270" height="70" as="geometry" />
        </mxCell>
        <mxCell id="VDnxwMm_5BDVNk77qKNi-46" value="ClinWMS" style="swimlane;horizontal=0;" parent="VDnxwMm_5BDVNk77qKNi-43" vertex="1">
          <mxGeometry y="270" width="840" height="530" as="geometry" />
        </mxCell>
        <mxCell id="VDnxwMm_5BDVNk77qKNi-47" style="edgeStyle=orthogonalEdgeStyle;rounded=0;orthogonalLoop=1;jettySize=auto;html=1;exitX=0.5;exitY=1;exitDx=0;exitDy=0;entryX=0.5;entryY=0;entryDx=0;entryDy=0;" parent="VDnxwMm_5BDVNk77qKNi-46" source="VDnxwMm_5BDVNk77qKNi-48" target="VDnxwMm_5BDVNk77qKNi-56" edge="1">
          <mxGeometry relative="1" as="geometry" />
        </mxCell>
        <mxCell id="VDnxwMm_5BDVNk77qKNi-48" value="DEPO待确认" style="rounded=0;whiteSpace=wrap;html=1;" parent="VDnxwMm_5BDVNk77qKNi-46" vertex="1">
          <mxGeometry x="363" y="30" width="120" height="60" as="geometry" />
        </mxCell>
        <mxCell id="VDnxwMm_5BDVNk77qKNi-49" style="edgeStyle=orthogonalEdgeStyle;rounded=0;orthogonalLoop=1;jettySize=auto;html=1;exitX=0.5;exitY=1;exitDx=0;exitDy=0;fontColor=none;" parent="VDnxwMm_5BDVNk77qKNi-46" source="VDnxwMm_5BDVNk77qKNi-50" target="VDnxwMm_5BDVNk77qKNi-59" edge="1">
          <mxGeometry relative="1" as="geometry" />
        </mxCell>
        <mxCell id="VDnxwMm_5BDVNk77qKNi-50" value="DEPO确认下单" style="rounded=0;whiteSpace=wrap;html=1;" parent="VDnxwMm_5BDVNk77qKNi-46" vertex="1">
          <mxGeometry x="363" y="282" width="120" height="60" as="geometry" />
        </mxCell>
        <mxCell id="VDnxwMm_5BDVNk77qKNi-51" value="&lt;div&gt;正向流程：——有编号药 / 无编号药：&lt;/div&gt;&lt;div&gt;1、下单成功&lt;/div&gt;&lt;div&gt;2、实际库存：不变；&lt;/div&gt;" style="rounded=0;whiteSpace=wrap;html=1;align=left;" parent="VDnxwMm_5BDVNk77qKNi-46" vertex="1">
          <mxGeometry x="60" y="30" width="270" height="70" as="geometry" />
        </mxCell>
        <mxCell id="VDnxwMm_5BDVNk77qKNi-54" value="&lt;font style=&quot;font-size: 12px;&quot;&gt;中心拒收：&lt;br&gt;1、结束原运单的状态；&lt;br&gt;&lt;/font&gt;&lt;font face=&quot;微软雅黑&quot;&gt;&lt;font style=&quot;font-size: 12px;&quot;&gt;2、实际库存：减少；&lt;/font&gt;&lt;/font&gt;可选库存：不变；锁定库存：减少；&lt;br&gt;&lt;font face=&quot;微软雅黑&quot;&gt;&lt;br&gt;中心退回：&lt;br&gt;1、无其他业务以及库存变更逻辑；&lt;br&gt;&lt;/font&gt;" style="rounded=0;whiteSpace=wrap;html=1;align=left;" parent="VDnxwMm_5BDVNk77qKNi-46" vertex="1">
          <mxGeometry x="60" y="150" width="270" height="110" as="geometry" />
        </mxCell>
        <mxCell id="VDnxwMm_5BDVNk77qKNi-55" style="edgeStyle=orthogonalEdgeStyle;rounded=0;orthogonalLoop=1;jettySize=auto;html=1;exitX=0.5;exitY=1;exitDx=0;exitDy=0;" parent="VDnxwMm_5BDVNk77qKNi-46" source="VDnxwMm_5BDVNk77qKNi-56" target="VDnxwMm_5BDVNk77qKNi-50" edge="1">
          <mxGeometry relative="1" as="geometry" />
        </mxCell>
        <mxCell id="VDnxwMm_5BDVNk77qKNi-56" value="DEPO确认完成" style="rounded=0;whiteSpace=wrap;html=1;" parent="VDnxwMm_5BDVNk77qKNi-46" vertex="1">
          <mxGeometry x="363" y="165" width="120" height="60" as="geometry" />
        </mxCell>
        <mxCell id="VDnxwMm_5BDVNk77qKNi-59" value="&lt;span style=&quot;&quot;&gt;确认接收(ClinWMS确认接收)&lt;/span&gt;" style="rounded=0;whiteSpace=wrap;html=1;" parent="VDnxwMm_5BDVNk77qKNi-46" vertex="1">
          <mxGeometry x="363" y="387" width="120" height="60" as="geometry" />
        </mxCell>
        <mxCell id="VDnxwMm_5BDVNk77qKNi-60" value="结束" style="rounded=1;whiteSpace=wrap;html=1;" parent="VDnxwMm_5BDVNk77qKNi-46" vertex="1">
          <mxGeometry x="383" y="477" width="80" height="33" as="geometry" />
        </mxCell>
        <mxCell id="VDnxwMm_5BDVNk77qKNi-61" value="&lt;div&gt;正向流程 —- 有编号药 / 无编号药：&lt;/div&gt;&lt;div&gt;1、增加仓库的库存；&lt;/div&gt;&lt;div&gt;2、实际库存：增加；可用库存：增加；&lt;/div&gt;" style="rounded=0;whiteSpace=wrap;html=1;align=left;" parent="VDnxwMm_5BDVNk77qKNi-46" vertex="1">
          <mxGeometry x="60" y="379.75" width="270" height="74.5" as="geometry" />
        </mxCell>
        <mxCell id="VDnxwMm_5BDVNk77qKNi-62" style="edgeStyle=orthogonalEdgeStyle;rounded=0;orthogonalLoop=1;jettySize=auto;html=1;exitX=0.5;exitY=1;exitDx=0;exitDy=0;entryX=0.5;entryY=0;entryDx=0;entryDy=0;" parent="VDnxwMm_5BDVNk77qKNi-46" source="VDnxwMm_5BDVNk77qKNi-59" target="VDnxwMm_5BDVNk77qKNi-60" edge="1">
          <mxGeometry relative="1" as="geometry" />
        </mxCell>
        <mxCell id="VDnxwMm_5BDVNk77qKNi-67" style="rounded=0;orthogonalLoop=1;jettySize=auto;html=1;exitX=0.5;exitY=1;exitDx=0;exitDy=0;startArrow=none;entryX=0.5;entryY=0;entryDx=0;entryDy=0;" parent="VDnxwMm_5BDVNk77qKNi-43" source="VDnxwMm_5BDVNk77qKNi-68" target="VDnxwMm_5BDVNk77qKNi-48" edge="1">
          <mxGeometry relative="1" as="geometry">
            <mxPoint x="423" y="380" as="targetPoint" />
          </mxGeometry>
        </mxCell>
      </root>
    </mxGraphModel>
  </diagram>
</mxfile>
